<svg id="Capa_1" enable-background="new 0 0 511.999 511.999" height="35" viewBox="0 0 511.999 511.999" width="35" xmlns="http://www.w3.org/2000/svg"><g><g><g><g><g><path d="m500.067 346.782c-14.913-15.213-38.346-17.382-55.721-5.158-.056.039-.111.079-.166.119l-32.016 23.518c1.284-6.094 1.201-11.61-.258-16.508-2.785-9.346-11.648-20.486-38.056-20.486h-116.832c-18.934-21.998-39.942-32.827-62.5-32.237-24.321.647-44.866 14.7-58.276 26.997-1.74-2.944-4.946-4.92-8.614-4.92h-47.297v-1.656c0-5.522-4.477-10-10-10h-60.331c-5.523 0-10 4.478-10 10v141.066c0 5.522 4.477 10 10 10h60.331c5.523 0 10-4.478 10-10v-1.656h47.296c5.523 0 10-4.478 10-10v-6.232h7.553c3.026 0 5.961-.193 8.55-.364 11.067-.729 11.433.071 12.517 2.447 14.207 31.125 42.507 39.031 60.74 39.031 3.029 0 5.784-.219 8.146-.585 5.458-.847 9.195-5.958 8.349-11.415-.847-5.458-5.962-9.186-11.415-8.349-.33.051-33.14 4.748-47.625-26.987-7.183-15.736-22.134-14.756-32.026-14.099-2.393.157-4.867.32-7.235.32h-7.553v-68.993c6.624-8.126 29.799-33.923 57.498-34.614 17.2-.459 33.832 9.165 49.419 28.519 1.898 2.357 4.762 3.728 7.788 3.728h121.52c10.353 0 17.159 2.042 18.675 5.604 3.451 8.106-8.602 27.668-15.545 36.341h-112.09c-5.522 0-10 4.478-10 10s4.478 10 10 10h116.509c3.344 0 5.321-1.444 5.996-1.941l68.533-50.343c9.316-6.497 21.855-5.305 29.854 2.854 4.316 4.403 6.513 10.268 6.186 16.513-.32 6.103-3.002 11.581-7.562 15.467l-69.641 49.319c-20.653 14.622-38.403 18.192-90.44 18.192-5.522 0-10 4.478-10 10s4.478 10 10 10c52.476 0 75.773-3.304 101.998-21.869l69.974-49.556c.202-.144.399-.294.591-.452 8.952-7.397 14.438-18.352 15.052-30.054.615-11.732-3.714-23.235-11.876-31.561zm-439.736 100.734h-40.331v-121.066h40.331zm57.296-11.656h-37.296v-97.754h37.296z"/><path d="m288.31 466.453c-1.581-3.861-5.566-6.381-9.734-6.159-4.058.217-7.65 2.923-8.966 6.768-1.363 3.979.017 8.543 3.346 11.112 3.272 2.525 7.886 2.779 11.401.595 4.098-2.547 5.81-7.863 3.953-12.316z"/><path d="m364.311 219.031c-16.219 20.411-12.81 50.212 7.6 66.433 8.681 6.898 19.058 10.245 29.368 10.245 13.933 0 27.741-6.115 37.063-17.845l25.594-32.205 25.593-32.205c16.22-20.41 12.811-50.212-7.6-66.433-20.41-16.22-50.21-12.809-66.432 7.6l-25.594 32.205zm58.373 46.389c-9.357 11.777-26.554 13.743-38.33 4.385s-13.743-26.555-4.385-38.331l19.371-24.376 21.358 16.973 21.358 16.973zm8.471-98.356c4.533-5.705 11.017-9.303 18.257-10.131 7.236-.826 14.369 1.214 20.073 5.747 5.705 4.533 9.303 11.017 10.131 18.257.828 7.239-1.213 14.368-5.746 20.073l-19.371 24.376-21.358-16.973-21.358-16.973z"/><path d="m249.078 255.384c9.632 4.902 20.056 7.382 30.551 7.382 7.04 0 14.112-1.115 20.997-3.364 17.147-5.601 31.083-17.558 39.237-33.668 9.67-19.104 9.69-40.962.838-59.555 4.536-.498 9.086-1.466 13.59-2.937 35.392-11.56 54.763-49.813 43.181-85.272-5.608-17.174-17.556-31.141-33.641-39.328-16.092-8.193-34.4-9.62-51.547-4.018-35.391 11.559-54.762 49.811-43.181 85.271.897 2.748 1.956 5.399 3.159 7.947-22.301 2.454-42.446 15.992-52.882 36.609-16.825 33.241-3.503 74.033 29.698 90.933zm69.415-201.749c12.063-3.938 24.942-2.934 36.266 2.829 11.331 5.769 19.748 15.61 23.701 27.714 8.158 24.978-5.47 51.916-30.378 60.052-24.907 8.135-51.809-5.567-59.967-30.544-8.157-24.978 5.471-51.916 30.378-60.051zm-81.268 119.85c9.049-17.879 28.456-28.2 48.303-25.669.349.045.698.093 1.047.146.102.015.203.029.305.041 8.161 7.718 18.128 13.292 28.917 16.221 12.511 14.709 14.973 35.194 6.224 52.478-5.738 11.337-15.542 19.75-27.604 23.689-12.063 3.939-24.94 2.934-36.265-2.83-23.396-11.909-32.784-40.654-20.927-64.076z"/><path d="m269.102 215.874c1.448.733 2.99 1.08 4.509 1.08 3.65 0 7.168-2.006 8.93-5.485l12.007-23.72c2.494-4.928.521-10.944-4.405-13.438-4.93-2.495-10.943-.521-13.438 4.405l-12.007 23.72c-2.496 4.928-.523 10.944 4.404 13.438z"/><path d="m327.914 114.687c1.378 4.219 5.294 6.898 9.504 6.898 1.029 0 2.075-.16 3.106-.497 5.25-1.715 8.116-7.36 6.401-12.61l-8.264-25.301c-1.715-5.25-7.361-8.118-12.61-6.401-5.25 1.715-8.116 7.36-6.401 12.61z"/></g></g></g></g></g></svg>